# MagicaVoxel @ Ephtracy

# group
o 

# material
mtllib Coin.mtl
usemtl palette

# normals
vn -1 0 0
vn 1 0 0
vn 0 0 1
vn 0 0 -1
vn 0 -1 0
vn 0 1 0

# texcoords
vt 0.00195312 0.5
vt 0.00976562 0.5
vt 0.0214844 0.5

# verts
v 7.45058e-09 0.1 0.2
v 7.45058e-09 0.1 -0.2
v 7.45058e-09 0.2 0.3
v 7.45058e-09 0.2 0.2
v 7.45058e-09 0.2 -0.2
v 7.45058e-09 0.2 -0.3
v 7.45058e-09 0.3 0.4
v 7.45058e-09 0.3 0.3
v 7.45058e-09 0.3 0.2
v 7.45058e-09 0.3 0.1
v 7.45058e-09 0.3 -0.1
v 7.45058e-09 0.3 -0.2
v 7.45058e-09 0.3 -0.3
v 7.45058e-09 0.3 -0.4
v 7.45058e-09 0.4 0.2
v 7.45058e-09 0.4 0.1
v 7.45058e-09 0.4 -0.1
v 7.45058e-09 0.6 0.2
v 7.45058e-09 0.6 0.1
v 7.45058e-09 0.6 -0.1
v 7.45058e-09 0.7 0.4
v 7.45058e-09 0.7 0.3
v 7.45058e-09 0.7 0.2
v 7.45058e-09 0.7 0.1
v 7.45058e-09 0.7 -0.1
v 7.45058e-09 0.7 -0.2
v 7.45058e-09 0.7 -0.3
v 7.45058e-09 0.7 -0.4
v 7.45058e-09 0.8 0.3
v 7.45058e-09 0.8 0.2
v 7.45058e-09 0.8 -0.2
v 7.45058e-09 0.8 -0.3
v 7.45058e-09 0.9 0.2
v 7.45058e-09 0.9 -0.2
v 0.1 0.1 0.2
v 0.1 0.1 -0.2
v 0.1 0.2 0.3
v 0.1 0.2 0.2
v 0.1 0.2 -0.2
v 0.1 0.2 -0.3
v 0.1 0.3 0.4
v 0.1 0.3 0.3
v 0.1 0.3 0.2
v 0.1 0.3 0.1
v 0.1 0.3 -0.1
v 0.1 0.3 -0.2
v 0.1 0.3 -0.3
v 0.1 0.3 -0.4
v 0.1 0.4 0.2
v 0.1 0.4 0.1
v 0.1 0.4 -0.1
v 0.1 0.6 0.2
v 0.1 0.6 0.1
v 0.1 0.6 -0.1
v 0.1 0.7 0.4
v 0.1 0.7 0.3
v 0.1 0.7 0.2
v 0.1 0.7 0.1
v 0.1 0.7 -0.1
v 0.1 0.7 -0.2
v 0.1 0.7 -0.3
v 0.1 0.7 -0.4
v 0.1 0.8 0.3
v 0.1 0.8 0.2
v 0.1 0.8 -0.2
v 0.1 0.8 -0.3
v 0.1 0.9 0.2
v 0.1 0.9 -0.2
v 7.45058e-09 0.3 0.4
v 7.45058e-09 0.7 0.4
v 0.1 0.3 0.4
v 0.1 0.7 0.4
v 7.45058e-09 0.2 0.3
v 7.45058e-09 0.3 0.3
v 7.45058e-09 0.7 0.3
v 7.45058e-09 0.8 0.3
v 0.1 0.2 0.3
v 0.1 0.3 0.3
v 0.1 0.7 0.3
v 0.1 0.8 0.3
v 7.45058e-09 0.1 0.2
v 7.45058e-09 0.2 0.2
v 7.45058e-09 0.8 0.2
v 7.45058e-09 0.9 0.2
v 0.1 0.1 0.2
v 0.1 0.2 0.2
v 0.1 0.8 0.2
v 0.1 0.9 0.2
v 7.45058e-09 0.1 -0.2
v 7.45058e-09 0.2 -0.2
v 7.45058e-09 0.8 -0.2
v 7.45058e-09 0.9 -0.2
v 0.1 0.1 -0.2
v 0.1 0.2 -0.2
v 0.1 0.8 -0.2
v 0.1 0.9 -0.2
v 7.45058e-09 0.2 -0.3
v 7.45058e-09 0.3 -0.3
v 7.45058e-09 0.7 -0.3
v 7.45058e-09 0.8 -0.3
v 0.1 0.2 -0.3
v 0.1 0.3 -0.3
v 0.1 0.7 -0.3
v 0.1 0.8 -0.3
v 7.45058e-09 0.3 -0.4
v 7.45058e-09 0.7 -0.4
v 0.1 0.3 -0.4
v 0.1 0.7 -0.4
v 7.45058e-09 0.1 0.2
v 0.1 0.1 0.2
v 7.45058e-09 0.1 -0.2
v 0.1 0.1 -0.2
v 7.45058e-09 0.2 0.3
v 0.1 0.2 0.3
v 7.45058e-09 0.2 0.2
v 0.1 0.2 0.2
v 7.45058e-09 0.2 -0.2
v 0.1 0.2 -0.2
v 7.45058e-09 0.2 -0.3
v 0.1 0.2 -0.3
v 7.45058e-09 0.3 0.4
v 0.1 0.3 0.4
v 7.45058e-09 0.3 0.3
v 0.1 0.3 0.3
v 7.45058e-09 0.3 -0.3
v 0.1 0.3 -0.3
v 7.45058e-09 0.3 -0.4
v 0.1 0.3 -0.4
v 7.45058e-09 0.7 0.4
v 0.1 0.7 0.4
v 7.45058e-09 0.7 0.3
v 0.1 0.7 0.3
v 7.45058e-09 0.7 -0.3
v 0.1 0.7 -0.3
v 7.45058e-09 0.7 -0.4
v 0.1 0.7 -0.4
v 7.45058e-09 0.8 0.3
v 0.1 0.8 0.3
v 7.45058e-09 0.8 0.2
v 0.1 0.8 0.2
v 7.45058e-09 0.8 -0.2
v 0.1 0.8 -0.2
v 7.45058e-09 0.8 -0.3
v 0.1 0.8 -0.3
v 7.45058e-09 0.9 0.2
v 0.1 0.9 0.2
v 7.45058e-09 0.9 -0.2
v 0.1 0.9 -0.2

# faces
f 4/2/1 2/2/1 1/2/1
f 5/2/1 2/2/1 4/2/1
f 8/2/1 4/2/1 3/2/1
f 9/3/1 5/3/1 4/3/1
f 9/2/1 4/2/1 8/2/1
f 10/3/1 5/3/1 9/3/1
f 11/3/1 5/3/1 10/3/1
f 12/2/1 6/2/1 5/2/1
f 12/3/1 5/3/1 11/3/1
f 13/2/1 6/2/1 12/2/1
f 15/3/1 9/3/1 8/3/1
f 15/3/1 10/3/1 9/3/1
f 16/1/1 11/1/1 10/1/1
f 16/3/1 10/3/1 15/3/1
f 17/3/1 13/3/1 12/3/1
f 17/1/1 11/1/1 16/1/1
f 17/3/1 12/3/1 11/3/1
f 18/3/1 15/3/1 8/3/1
f 18/1/1 16/1/1 15/1/1
f 19/3/1 17/3/1 16/3/1
f 19/1/1 16/1/1 18/1/1
f 20/3/1 13/3/1 17/3/1
f 20/3/1 17/3/1 19/3/1
f 21/2/1 8/2/1 7/2/1
f 22/3/1 19/3/1 18/3/1
f 22/2/1 8/2/1 21/2/1
f 22/3/1 18/3/1 8/3/1
f 23/3/1 19/3/1 22/3/1
f 24/1/1 20/1/1 19/1/1
f 24/3/1 19/3/1 23/3/1
f 25/3/1 13/3/1 20/3/1
f 25/1/1 20/1/1 24/1/1
f 26/3/1 13/3/1 25/3/1
f 27/2/1 14/2/1 13/2/1
f 27/3/1 13/3/1 26/3/1
f 28/2/1 14/2/1 27/2/1
f 29/2/1 23/2/1 22/2/1
f 30/3/1 24/3/1 23/3/1
f 30/2/1 23/2/1 29/2/1
f 30/3/1 26/3/1 25/3/1
f 30/3/1 25/3/1 24/3/1
f 31/2/1 27/2/1 26/2/1
f 31/3/1 26/3/1 30/3/1
f 32/2/1 27/2/1 31/2/1
f 33/2/1 31/2/1 30/2/1
f 34/2/1 31/2/1 33/2/1
f 35/2/2 36/2/2 38/2/2
f 38/2/2 36/2/2 39/2/2
f 37/2/2 38/2/2 42/2/2
f 38/3/2 39/3/2 43/3/2
f 42/2/2 38/2/2 43/2/2
f 43/3/2 39/3/2 44/3/2
f 44/3/2 39/3/2 45/3/2
f 39/2/2 40/2/2 46/2/2
f 45/3/2 39/3/2 46/3/2
f 46/2/2 40/2/2 47/2/2
f 42/3/2 43/3/2 49/3/2
f 43/3/2 44/3/2 49/3/2
f 44/1/2 45/1/2 50/1/2
f 49/3/2 44/3/2 50/3/2
f 46/3/2 47/3/2 51/3/2
f 50/1/2 45/1/2 51/1/2
f 45/3/2 46/3/2 51/3/2
f 42/3/2 49/3/2 52/3/2
f 49/1/2 50/1/2 52/1/2
f 50/3/2 51/3/2 53/3/2
f 52/1/2 50/1/2 53/1/2
f 51/3/2 47/3/2 54/3/2
f 53/3/2 51/3/2 54/3/2
f 41/2/2 42/2/2 55/2/2
f 52/3/2 53/3/2 56/3/2
f 55/2/2 42/2/2 56/2/2
f 42/3/2 52/3/2 56/3/2
f 56/3/2 53/3/2 57/3/2
f 53/1/2 54/1/2 58/1/2
f 57/3/2 53/3/2 58/3/2
f 54/3/2 47/3/2 59/3/2
f 58/1/2 54/1/2 59/1/2
f 59/3/2 47/3/2 60/3/2
f 47/2/2 48/2/2 61/2/2
f 60/3/2 47/3/2 61/3/2
f 61/2/2 48/2/2 62/2/2
f 56/2/2 57/2/2 63/2/2
f 57/3/2 58/3/2 64/3/2
f 63/2/2 57/2/2 64/2/2
f 59/3/2 60/3/2 64/3/2
f 58/3/2 59/3/2 64/3/2
f 60/2/2 61/2/2 65/2/2
f 64/3/2 60/3/2 65/3/2
f 65/2/2 61/2/2 66/2/2
f 64/2/2 65/2/2 67/2/2
f 67/2/2 65/2/2 68/2/2
f 71/2/3 70/2/3 69/2/3
f 72/2/3 70/2/3 71/2/3
f 77/2/3 74/2/3 73/2/3
f 78/2/3 74/2/3 77/2/3
f 79/2/3 76/2/3 75/2/3
f 80/2/3 76/2/3 79/2/3
f 85/2/3 82/2/3 81/2/3
f 86/2/3 82/2/3 85/2/3
f 87/2/3 84/2/3 83/2/3
f 88/2/3 84/2/3 87/2/3
f 89/2/4 90/2/4 93/2/4
f 93/2/4 90/2/4 94/2/4
f 91/2/4 92/2/4 95/2/4
f 95/2/4 92/2/4 96/2/4
f 97/2/4 98/2/4 101/2/4
f 101/2/4 98/2/4 102/2/4
f 99/2/4 100/2/4 103/2/4
f 103/2/4 100/2/4 104/2/4
f 105/2/4 106/2/4 107/2/4
f 107/2/4 106/2/4 108/2/4
f 111/2/5 110/2/5 109/2/5
f 112/2/5 110/2/5 111/2/5
f 115/2/5 114/2/5 113/2/5
f 116/2/5 114/2/5 115/2/5
f 119/2/5 118/2/5 117/2/5
f 120/2/5 118/2/5 119/2/5
f 123/2/5 122/2/5 121/2/5
f 124/2/5 122/2/5 123/2/5
f 127/2/5 126/2/5 125/2/5
f 128/2/5 126/2/5 127/2/5
f 129/2/6 130/2/6 131/2/6
f 131/2/6 130/2/6 132/2/6
f 133/2/6 134/2/6 135/2/6
f 135/2/6 134/2/6 136/2/6
f 137/2/6 138/2/6 139/2/6
f 139/2/6 138/2/6 140/2/6
f 141/2/6 142/2/6 143/2/6
f 143/2/6 142/2/6 144/2/6
f 145/2/6 146/2/6 147/2/6
f 147/2/6 146/2/6 148/2/6
